<svg viewBox="0 0 70 105" fill="none" xmlns="http://www.w3.org/2000/svg">
<ellipse cx="36.8104" cy="92.9311" rx="8.24713" ry="11.6667" fill="#ADADAD"/>
<path fill-rule="evenodd" clip-rule="evenodd" d="M57.7009 61.6405C65.2274 55.2208 70 45.6678 70 35C70 15.67 54.33 0 35 0C15.67 0 0 15.67 0 35C0 45.2602 4.41488 54.4892 11.4486 60.8911C11.6817 61.1545 11.9197 61.4185 12.1607 61.6858C15.5888 65.4881 19.6174 69.9563 18.5057 82.8736H53.5057C52.7694 71.5207 55.4774 64.9996 57.7009 61.6405Z" fill="#FFF3D2"/>
<ellipse cx="44.7848" cy="42.9669" rx="6.51385" ry="6.75994" fill="white"/>
<path d="M47.3905 48.8253H41.0937C37.8368 52.4306 33.4942 62.5705 35.2313 63.4719C36.9683 64.3732 39.8633 58.2141 41.0937 56.2613C40.7319 61.1434 37.8368 76.5411 41.0937 76.5411C43.2909 76.5411 44.0611 68.5043 44.7849 65.7252C46.1601 68.5794 46.2282 77.7393 48.4761 75.6397C50.6474 73.6118 48.4761 61.6692 48.4761 56.2613C49.7065 57.9137 53.065 63.835 54.5557 61.6692C55.6413 60.0919 50.8645 51.9048 47.3905 48.8253Z" fill="#FCFCFC"/>
<ellipse cx="25.6396" cy="43.8682" rx="6.51385" ry="6.75994" fill="white"/>
<path d="M28.2452 49.7267H21.9485C18.6915 53.332 14.349 63.4719 16.086 64.3732C17.823 65.2745 20.7181 59.1155 21.9485 57.1626C21.5866 62.0448 18.6915 77.4424 21.9485 77.4424C24.1457 77.4424 24.9159 69.4056 25.6396 66.6265C27.0148 69.4807 27.0829 78.6407 29.3308 76.5411C31.5021 74.5131 29.3308 62.5706 29.3308 57.1626C30.5612 58.815 33.9197 64.7364 35.4104 62.5706C36.4961 60.9933 31.7192 52.8062 28.2452 49.7267Z" fill="#FCFCFC"/>
<rect x="15.6897" y="77.2413" width="41.8391" height="5.63218" rx="2.81609" fill="#E0E0E0"/>
<rect x="15.6897" y="82.8735" width="41.8391" height="5.63218" rx="2.81609" fill="#D3CFCF"/>
<rect x="15.6897" y="88.5059" width="41.8391" height="5.63218" rx="2.81609" fill="#C4C4C4"/>
</svg>
