<svg viewBox="0 0 201 51" fill="none" xmlns="http://www.w3.org/2000/svg">
<g filter="url(#filter0_d)">
<path d="M54.2 32.24C53.048 32.24 52.024 32.096 51.128 31.808C50.232 31.52 49.392 31.032 48.608 30.344C48.176 29.96 47.96 29.536 47.96 29.072C47.96 28.704 48.096 28.384 48.368 28.112C48.64 27.824 48.968 27.68 49.352 27.68C49.656 27.68 49.928 27.776 50.168 27.968C50.808 28.496 51.432 28.88 52.04 29.12C52.648 29.36 53.368 29.48 54.2 29.48C55.096 29.48 55.864 29.28 56.504 28.88C57.16 28.48 57.488 27.984 57.488 27.392C57.488 26.672 57.168 26.112 56.528 25.712C55.888 25.296 54.872 24.984 53.48 24.776C49.976 24.264 48.224 22.632 48.224 19.88C48.224 18.872 48.488 18 49.016 17.264C49.544 16.512 50.264 15.944 51.176 15.56C52.088 15.16 53.104 14.96 54.224 14.96C55.232 14.96 56.176 15.112 57.056 15.416C57.952 15.72 58.696 16.12 59.288 16.616C59.752 16.984 59.984 17.408 59.984 17.888C59.984 18.256 59.848 18.584 59.576 18.872C59.304 19.144 58.984 19.28 58.616 19.28C58.376 19.28 58.16 19.208 57.968 19.064C57.552 18.728 56.968 18.424 56.216 18.152C55.48 17.864 54.816 17.72 54.224 17.72C53.216 17.72 52.432 17.912 51.872 18.296C51.328 18.664 51.056 19.152 51.056 19.76C51.056 20.448 51.336 20.968 51.896 21.32C52.472 21.672 53.368 21.96 54.584 22.184C55.96 22.424 57.056 22.736 57.872 23.12C58.704 23.488 59.328 24 59.744 24.656C60.16 25.296 60.368 26.152 60.368 27.224C60.368 28.232 60.08 29.12 59.504 29.888C58.944 30.64 58.192 31.224 57.248 31.64C56.304 32.04 55.288 32.24 54.2 32.24ZM69.5523 29.288C69.7763 29.288 69.9763 29.4 70.1523 29.624C70.3443 29.832 70.4403 30.112 70.4403 30.464C70.4403 30.896 70.2003 31.264 69.7203 31.568C69.2563 31.856 68.7283 32 68.1363 32C67.1443 32 66.3043 31.792 65.6163 31.376C64.9443 30.944 64.6083 30.04 64.6083 28.664V22.04H63.5043C63.1203 22.04 62.8003 21.912 62.5443 21.656C62.2883 21.4 62.1603 21.08 62.1603 20.696C62.1603 20.328 62.2883 20.024 62.5443 19.784C62.8003 19.528 63.1203 19.4 63.5043 19.4H64.6083V17.864C64.6083 17.448 64.7443 17.104 65.0163 16.832C65.3043 16.544 65.6563 16.4 66.0723 16.4C66.4723 16.4 66.8083 16.544 67.0803 16.832C67.3523 17.104 67.4883 17.448 67.4883 17.864V19.4H69.1923C69.5763 19.4 69.8963 19.528 70.1523 19.784C70.4083 20.04 70.5363 20.36 70.5363 20.744C70.5363 21.112 70.4083 21.424 70.1523 21.68C69.8963 21.92 69.5763 22.04 69.1923 22.04H67.4883V28.544C67.4883 28.88 67.5763 29.128 67.7523 29.288C67.9283 29.432 68.1683 29.504 68.4723 29.504C68.6003 29.504 68.7763 29.472 69.0003 29.408C69.1923 29.328 69.3763 29.288 69.5523 29.288ZM83.1886 19.16C83.6046 19.16 83.9486 19.304 84.2206 19.592C84.4926 19.864 84.6286 20.208 84.6286 20.624V26.72C84.6286 28.448 84.1486 29.8 83.1886 30.776C82.2446 31.752 80.8926 32.24 79.1326 32.24C77.3726 32.24 76.0206 31.752 75.0766 30.776C74.1326 29.8 73.6606 28.448 73.6606 26.72V20.624C73.6606 20.208 73.7966 19.864 74.0686 19.592C74.3406 19.304 74.6846 19.16 75.1006 19.16C75.5166 19.16 75.8606 19.304 76.1326 19.592C76.4046 19.864 76.5406 20.208 76.5406 20.624V26.72C76.5406 27.696 76.7566 28.424 77.1886 28.904C77.6206 29.368 78.2686 29.6 79.1326 29.6C80.0126 29.6 80.6686 29.368 81.1006 28.904C81.5326 28.424 81.7486 27.696 81.7486 26.72V20.624C81.7486 20.208 81.8846 19.864 82.1566 19.592C82.4286 19.304 82.7726 19.16 83.1886 19.16ZM98.6186 14.24C99.0346 14.24 99.3786 14.376 99.6506 14.648C99.9226 14.92 100.059 15.272 100.059 15.704V30.536C100.059 30.952 99.9226 31.304 99.6506 31.592C99.3786 31.864 99.0346 32 98.6186 32C98.2026 32 97.8586 31.864 97.5866 31.592C97.3306 31.32 97.1946 30.976 97.1786 30.56C96.7786 31.024 96.2346 31.424 95.5466 31.76C94.8746 32.08 94.1626 32.24 93.4106 32.24C92.3066 32.24 91.3066 31.96 90.4106 31.4C89.5146 30.824 88.8026 30.032 88.2746 29.024C87.7626 28.016 87.5066 26.872 87.5066 25.592C87.5066 24.312 87.7626 23.168 88.2746 22.16C88.7866 21.136 89.4826 20.344 90.3626 19.784C91.2586 19.208 92.2426 18.92 93.3146 18.92C94.0826 18.92 94.8026 19.064 95.4746 19.352C96.1466 19.624 96.7146 19.976 97.1786 20.408V15.704C97.1786 15.288 97.3146 14.944 97.5866 14.672C97.8586 14.384 98.2026 14.24 98.6186 14.24ZM93.7706 29.6C94.8106 29.6 95.6586 29.224 96.3146 28.472C96.9706 27.704 97.2986 26.744 97.2986 25.592C97.2986 24.44 96.9706 23.48 96.3146 22.712C95.6586 21.944 94.8106 21.56 93.7706 21.56C92.7466 21.56 91.9066 21.944 91.2506 22.712C90.5946 23.48 90.2666 24.44 90.2666 25.592C90.2666 26.744 90.5866 27.704 91.2266 28.472C91.8826 29.224 92.7306 29.6 93.7706 29.6ZM113.188 19.16C113.604 19.16 113.948 19.304 114.22 19.592C114.492 19.864 114.628 20.208 114.628 20.624V30.824C114.628 32.904 114.068 34.416 112.948 35.36C111.828 36.32 110.332 36.8 108.46 36.8C107.916 36.8 107.356 36.752 106.78 36.656C106.22 36.576 105.764 36.464 105.412 36.32C104.628 35.984 104.236 35.52 104.236 34.928C104.236 34.816 104.26 34.688 104.308 34.544C104.404 34.192 104.564 33.92 104.788 33.728C105.028 33.552 105.284 33.464 105.556 33.464C105.716 33.464 105.868 33.488 106.012 33.536C106.124 33.584 106.316 33.664 106.588 33.776C106.876 33.888 107.172 33.976 107.476 34.04C107.796 34.12 108.124 34.16 108.46 34.16C109.596 34.16 110.428 33.912 110.956 33.416C111.5 32.936 111.772 32.104 111.772 30.92V30.68C110.94 31.72 109.644 32.24 107.884 32.24C107.052 32.24 106.316 32.048 105.676 31.664C105.036 31.264 104.54 30.72 104.188 30.032C103.836 29.328 103.66 28.528 103.66 27.632V20.624C103.66 20.208 103.796 19.864 104.068 19.592C104.34 19.304 104.684 19.16 105.1 19.16C105.516 19.16 105.86 19.304 106.132 19.592C106.404 19.864 106.54 20.208 106.54 20.624V26.768C106.54 27.776 106.756 28.504 107.188 28.952C107.636 29.384 108.284 29.6 109.132 29.6C109.964 29.6 110.604 29.36 111.052 28.88C111.516 28.384 111.748 27.68 111.748 26.768V20.624C111.748 20.208 111.884 19.864 112.156 19.592C112.428 19.304 112.772 19.16 113.188 19.16ZM128.546 22.688C129.394 23.024 130.082 23.536 130.61 24.224C131.154 24.912 131.426 25.8 131.426 26.888C131.426 28.792 130.882 30.12 129.794 30.872C128.706 31.624 127.41 32 125.906 32H119.93C119.514 32 119.162 31.864 118.874 31.592C118.602 31.304 118.466 30.952 118.466 30.536V16.664C118.466 16.248 118.602 15.904 118.874 15.632C119.162 15.344 119.514 15.2 119.93 15.2H125.978C129.018 15.2 130.538 16.624 130.538 19.472C130.538 20.192 130.362 20.832 130.01 21.392C129.674 21.936 129.186 22.368 128.546 22.688ZM127.418 20C127.418 19.344 127.25 18.856 126.914 18.536C126.594 18.2 126.138 18.032 125.546 18.032H121.586V21.776H125.618C126.098 21.776 126.514 21.616 126.866 21.296C127.234 20.976 127.418 20.544 127.418 20ZM125.906 29.24C126.658 29.24 127.242 29.04 127.658 28.64C128.09 28.24 128.306 27.656 128.306 26.888C128.306 25.944 128.058 25.328 127.562 25.04C127.066 24.752 126.458 24.608 125.738 24.608H121.586V29.24H125.906ZM143.96 19.16C144.376 19.16 144.72 19.304 144.992 19.592C145.264 19.864 145.4 20.208 145.4 20.624V26.72C145.4 28.448 144.92 29.8 143.96 30.776C143.016 31.752 141.664 32.24 139.904 32.24C138.144 32.24 136.792 31.752 135.848 30.776C134.904 29.8 134.432 28.448 134.432 26.72V20.624C134.432 20.208 134.568 19.864 134.84 19.592C135.112 19.304 135.456 19.16 135.872 19.16C136.288 19.16 136.632 19.304 136.904 19.592C137.176 19.864 137.312 20.208 137.312 20.624V26.72C137.312 27.696 137.528 28.424 137.96 28.904C138.392 29.368 139.04 29.6 139.904 29.6C140.784 29.6 141.44 29.368 141.872 28.904C142.304 28.424 142.52 27.696 142.52 26.72V20.624C142.52 20.208 142.656 19.864 142.928 19.592C143.2 19.304 143.544 19.16 143.96 19.16ZM159.39 14.24C159.806 14.24 160.15 14.376 160.422 14.648C160.694 14.92 160.83 15.272 160.83 15.704V30.536C160.83 30.952 160.694 31.304 160.422 31.592C160.15 31.864 159.806 32 159.39 32C158.974 32 158.63 31.864 158.358 31.592C158.102 31.32 157.966 30.976 157.95 30.56C157.55 31.024 157.006 31.424 156.318 31.76C155.646 32.08 154.934 32.24 154.182 32.24C153.078 32.24 152.078 31.96 151.182 31.4C150.286 30.824 149.574 30.032 149.046 29.024C148.534 28.016 148.278 26.872 148.278 25.592C148.278 24.312 148.534 23.168 149.046 22.16C149.558 21.136 150.254 20.344 151.134 19.784C152.03 19.208 153.014 18.92 154.086 18.92C154.854 18.92 155.574 19.064 156.246 19.352C156.918 19.624 157.486 19.976 157.95 20.408V15.704C157.95 15.288 158.086 14.944 158.358 14.672C158.63 14.384 158.974 14.24 159.39 14.24ZM154.542 29.6C155.582 29.6 156.43 29.224 157.086 28.472C157.742 27.704 158.07 26.744 158.07 25.592C158.07 24.44 157.742 23.48 157.086 22.712C156.43 21.944 155.582 21.56 154.542 21.56C153.518 21.56 152.678 21.944 152.022 22.712C151.366 23.48 151.038 24.44 151.038 25.592C151.038 26.744 151.358 27.704 151.998 28.472C152.654 29.224 153.502 29.6 154.542 29.6ZM174.823 14.24C175.239 14.24 175.583 14.376 175.855 14.648C176.127 14.92 176.263 15.272 176.263 15.704V30.536C176.263 30.952 176.127 31.304 175.855 31.592C175.583 31.864 175.239 32 174.823 32C174.407 32 174.063 31.864 173.791 31.592C173.535 31.32 173.399 30.976 173.383 30.56C172.983 31.024 172.439 31.424 171.751 31.76C171.079 32.08 170.367 32.24 169.615 32.24C168.511 32.24 167.511 31.96 166.615 31.4C165.719 30.824 165.007 30.032 164.479 29.024C163.967 28.016 163.711 26.872 163.711 25.592C163.711 24.312 163.967 23.168 164.479 22.16C164.991 21.136 165.687 20.344 166.567 19.784C167.463 19.208 168.447 18.92 169.519 18.92C170.287 18.92 171.007 19.064 171.679 19.352C172.351 19.624 172.919 19.976 173.383 20.408V15.704C173.383 15.288 173.519 14.944 173.791 14.672C174.063 14.384 174.407 14.24 174.823 14.24ZM169.975 29.6C171.015 29.6 171.863 29.224 172.519 28.472C173.175 27.704 173.503 26.744 173.503 25.592C173.503 24.44 173.175 23.48 172.519 22.712C171.863 21.944 171.015 21.56 169.975 21.56C168.951 21.56 168.111 21.944 167.455 22.712C166.799 23.48 166.471 24.44 166.471 25.592C166.471 26.744 166.791 27.704 167.431 28.472C168.087 29.224 168.935 29.6 169.975 29.6ZM189.392 19.16C189.808 19.16 190.152 19.304 190.424 19.592C190.696 19.864 190.832 20.208 190.832 20.624V30.824C190.832 32.904 190.272 34.416 189.152 35.36C188.032 36.32 186.536 36.8 184.664 36.8C184.12 36.8 183.56 36.752 182.984 36.656C182.424 36.576 181.968 36.464 181.616 36.32C180.832 35.984 180.44 35.52 180.44 34.928C180.44 34.816 180.464 34.688 180.512 34.544C180.608 34.192 180.768 33.92 180.992 33.728C181.232 33.552 181.488 33.464 181.76 33.464C181.92 33.464 182.072 33.488 182.216 33.536C182.328 33.584 182.52 33.664 182.792 33.776C183.08 33.888 183.376 33.976 183.68 34.04C184 34.12 184.328 34.16 184.664 34.16C185.8 34.16 186.632 33.912 187.16 33.416C187.704 32.936 187.976 32.104 187.976 30.92V30.68C187.144 31.72 185.848 32.24 184.088 32.24C183.256 32.24 182.52 32.048 181.88 31.664C181.24 31.264 180.744 30.72 180.392 30.032C180.04 29.328 179.864 28.528 179.864 27.632V20.624C179.864 20.208 180 19.864 180.272 19.592C180.544 19.304 180.888 19.16 181.304 19.16C181.72 19.16 182.064 19.304 182.336 19.592C182.608 19.864 182.744 20.208 182.744 20.624V26.768C182.744 27.776 182.96 28.504 183.392 28.952C183.84 29.384 184.488 29.6 185.336 29.6C186.168 29.6 186.808 29.36 187.256 28.88C187.72 28.384 187.952 27.68 187.952 26.768V20.624C187.952 20.208 188.088 19.864 188.36 19.592C188.632 19.304 188.976 19.16 189.392 19.16Z" fill="white"/>
</g>
<ellipse cx="16.0469" cy="40.5118" rx="3.5952" ry="5.0859" fill="#ADADAD"/>
<path fill-rule="evenodd" clip-rule="evenodd" d="M25.1538 26.8712C28.4349 24.0726 30.5154 19.9081 30.5154 15.2577C30.5154 6.8311 23.6843 0 15.2577 0C6.8311 0 0 6.8311 0 15.2577C0 19.7305 1.9246 23.7537 4.99084 26.5445C5.09245 26.6593 5.19621 26.7744 5.30127 26.891C6.79569 28.5485 8.55188 30.4963 8.06729 36.1274H23.325C23.004 31.1783 24.1845 28.3355 25.1538 26.8712Z" fill="#FFF3D2"/>
<ellipse cx="19.5232" cy="18.7307" rx="2.83961" ry="2.94689" fill="white"/>
<path d="M20.6591 21.2846H17.9141C16.4943 22.8563 14.6012 27.2766 15.3585 27.6696C16.1157 28.0625 17.3777 25.3775 17.9141 24.5262C17.7564 26.6545 16.4943 33.3669 17.9141 33.3669C18.8719 33.3669 19.2077 29.8634 19.5232 28.6519C20.1227 29.8961 20.1524 33.8892 21.1323 32.974C22.0789 32.0899 21.1323 26.8837 21.1323 24.5262C21.6687 25.2466 23.1328 27.8279 23.7826 26.8837C24.2559 26.1961 22.1735 22.6271 20.6591 21.2846Z" fill="#FCFCFC"/>
<ellipse cx="11.1772" cy="19.1236" rx="2.83961" ry="2.94689" fill="white"/>
<path d="M12.313 21.6776H9.56805C8.14824 23.2492 6.25516 27.6696 7.01239 28.0625C7.76962 28.4554 9.03167 25.7705 9.56804 24.9191C9.41028 27.0474 8.14823 33.7598 9.56804 33.7598C10.5259 33.7598 10.8616 30.2563 11.1771 29.0448C11.7766 30.289 11.8063 34.2821 12.7863 33.3669C13.7328 32.4828 12.7863 27.2766 12.7863 24.9191C13.3226 25.6395 14.7867 28.2208 15.4366 27.2766C15.9098 26.589 13.8275 23.02 12.313 21.6776Z" fill="#FCFCFC"/>
<rect x="6.83966" y="33.6721" width="18.2391" height="2.45526" rx="1.22763" fill="#E0E0E0"/>
<rect x="6.83966" y="36.1274" width="18.2391" height="2.45526" rx="1.22763" fill="#D3CFCF"/>
<rect x="6.83966" y="38.5827" width="18.2391" height="2.45526" rx="1.22763" fill="#C4C4C4"/>
<defs>
<filter id="filter0_d" x="37.96" y="8.23999" width="162.872" height="42.56" filterUnits="userSpaceOnUse" color-interpolation-filters="sRGB">
<feFlood flood-opacity="0" result="BackgroundImageFix"/>
<feColorMatrix in="SourceAlpha" type="matrix" values="0 0 0 0 0 0 0 0 0 0 0 0 0 0 0 0 0 0 127 0"/>
<feOffset dy="4"/>
<feGaussianBlur stdDeviation="5"/>
<feColorMatrix type="matrix" values="0 0 0 0 0.495833 0 0 0 0 0.495833 0 0 0 0 0.495833 0 0 0 0.1 0"/>
<feBlend mode="normal" in2="BackgroundImageFix" result="effect1_dropShadow"/>
<feBlend mode="normal" in="SourceGraphic" in2="effect1_dropShadow" result="shape"/>
</filter>
</defs>
</svg>
